<svg width="19" height="20" viewBox="0 0 19 20" fill="none" xmlns="http://www.w3.org/2000/svg">
<path fill-rule="evenodd" clip-rule="evenodd" d="M5.54673 2.56C6.25366 2.56 6.82674 1.98693 6.82674 1.28C6.82674 0.573077 6.25366 0 5.54673 0C4.83981 0 4.26674 0.573077 4.26674 1.28C4.26674 1.98693 4.83981 2.56 5.54673 2.56ZM9.38677 19.6267C10.948 19.6267 12.3869 19.0043 13.537 17.9571C14.2423 17.3149 15.3096 17.1041 16.0859 17.6586L17.4241 18.6144C17.8076 18.8884 18.3406 18.7995 18.6145 18.416C18.8884 18.0325 18.7996 17.4996 18.4161 17.2257L16.4411 15.8149C15.8888 15.4205 15.6894 14.7158 15.8711 14.062C16.0658 13.3611 16.672 12.8 17.3994 12.8H17.9201C18.3914 12.8 18.7734 12.418 18.7734 11.9467C18.7734 11.4754 18.3914 11.0934 17.9201 11.0934H17.6571C16.8446 11.0934 16.1873 10.4284 16.0273 9.63176C15.8965 8.98084 16.1163 8.31041 16.6566 7.92449L18.4161 6.66772C18.7996 6.39379 18.8884 5.86084 18.6145 5.47735C18.3406 5.09385 17.8076 5.00502 17.4241 5.27895L16.7821 5.73754C16.7752 5.74242 16.7859 5.75299 16.7796 5.7585L16.7782 5.75972L16.7751 5.76244L16.7648 5.77152L16.7279 5.80369C16.6961 5.83116 16.6503 5.87042 16.5916 5.91978C16.4743 6.01846 16.3051 6.1578 16.0933 6.32426C15.6706 6.65645 15.0738 7.10028 14.3777 7.54554C13.0297 8.40778 11.1419 9.38666 9.38677 9.38666C7.63162 9.38666 5.7439 8.40778 4.39588 7.54554C3.69977 7.10028 3.10295 6.65645 2.6803 6.32426C2.46851 6.1578 2.29931 6.01846 2.18196 5.91978C2.12326 5.87042 2.07746 5.83116 2.04571 5.80369L2.00874 5.77152L1.99842 5.76244L1.99534 5.75972L1.99433 5.75883C1.98805 5.75328 1.99831 5.74246 1.99149 5.73759L1.34939 5.27895C0.965888 5.00502 0.432938 5.09385 0.159014 5.47735C-0.114914 5.86084 -0.026089 6.39379 0.357408 6.66772L2.11688 7.92449C2.65718 8.31041 2.877 8.98084 2.74623 9.63176C2.5862 10.4284 1.92892 11.0934 1.11645 11.0934H0.853398C0.382118 11.0934 6.70469e-05 11.4754 6.70469e-05 11.9467C6.70469e-05 12.418 0.382118 12.8 0.853398 12.8H1.37412C2.10152 12.8 2.70768 13.3611 2.9024 14.062C3.08407 14.7158 2.88467 15.4205 2.33242 15.8149L0.357408 17.2257C-0.026089 17.4996 -0.114914 18.0325 0.159014 18.416C0.432938 18.7995 0.965888 18.8884 1.34939 18.6144L2.68761 17.6586C3.46385 17.1041 4.53119 17.3149 5.23652 17.9571C6.38662 19.0043 7.82547 19.6267 9.38677 19.6267ZM5.3155 6.10783C4.96147 5.88138 4.90175 5.39061 5.21112 5.10618C6.3654 4.04493 7.81396 3.41334 9.38677 3.41334C10.9596 3.41334 12.4082 4.04495 13.5624 5.10624C13.8718 5.39066 13.8121 5.88139 13.4581 6.10783C12.1379 6.95225 10.6123 7.68002 9.38677 7.68002C8.16126 7.68002 6.63565 6.95225 5.3155 6.10783ZM14.5068 1.28C14.5068 1.98693 13.9337 2.56 13.2268 2.56C12.5198 2.56 11.9468 1.98693 11.9468 1.28C11.9468 0.573077 12.5198 0 13.2268 0C13.9337 0 14.5068 0.573077 14.5068 1.28Z" fill="#D1251A"/>
</svg>
