<svg xmlns="http://www.w3.org/2000/svg" fill="none" viewBox="0 0 32 32" height="32" width="32" part="svg" draggable="true">

<path part="base-color" fill="currentColor" d="M 13.72 6.69 C 13.40 6.67 13.09 6.71 12.79 6.82 C 12.49 6.93 12.21 7.09 11.98 7.31 C 11.75 7.53 11.57 7.79 11.44 8.08 C 11.31 8.37 11.25 8.69 11.25 9.01 C 11.25 9.32 11.31 9.64 11.44 9.93 C 11.57 10.22 11.75 10.48 11.98 10.70 C 12.21 10.92 12.49 11.08 12.79 11.19 C 13.09 11.30 13.40 11.34 13.72 11.32 C 14.31 11.28 14.86 11.02 15.26 10.59 C 15.66 10.16 15.89 9.59 15.89 9.01 C 15.89 8.42 15.66 7.85 15.26 7.42 C 14.86 6.99 14.31 6.73 13.72 6.69 ZM 18.35 11.32 C 17.89 11.32 17.44 11.45 17.05 11.71 C 16.67 11.96 16.37 12.33 16.19 12.75 C 16.01 13.18 15.96 13.65 16.05 14.10 C 16.14 14.56 16.37 14.97 16.69 15.30 C 17.02 15.62 17.43 15.85 17.89 15.94 C 18.34 16.03 18.81 15.98 19.24 15.80 C 19.66 15.62 20.03 15.32 20.28 14.94 C 20.54 14.55 20.67 14.10 20.67 13.64 C 20.67 13.02 20.43 12.43 19.99 12.00 C 19.56 11.56 18.97 11.32 18.35 11.32 ZM 23.00 15.97 C 22.68 15.95 22.36 15.99 22.06 16.10 C 21.76 16.21 21.49 16.38 21.25 16.59 C 21.02 16.81 20.84 17.08 20.71 17.37 C 20.58 17.66 20.52 17.98 20.52 18.30 C 20.52 18.61 20.58 18.93 20.71 19.22 C 20.84 19.51 21.02 19.78 21.25 20.00 C 21.49 20.21 21.76 20.38 22.06 20.49 C 22.36 20.60 22.68 20.64 23.00 20.62 C 23.59 20.58 24.14 20.32 24.55 19.89 C 24.95 19.46 25.18 18.89 25.18 18.30 C 25.18 17.70 24.95 17.13 24.55 16.70 C 24.14 16.27 23.59 16.01 23.00 15.97 ZM 18.35 20.62 C 17.88 20.61 17.43 20.75 17.04 21.00 C 16.65 21.25 16.34 21.62 16.16 22.05 C 15.98 22.48 15.92 22.95 16.01 23.41 C 16.10 23.86 16.32 24.29 16.64 24.62 C 16.97 24.95 17.39 25.18 17.84 25.27 C 18.30 25.37 18.77 25.32 19.21 25.15 C 19.64 24.97 20.01 24.67 20.27 24.29 C 20.53 23.90 20.67 23.45 20.67 22.98 C 20.67 22.36 20.43 21.76 20.00 21.32 C 19.56 20.88 18.97 20.63 18.35 20.62 ZM 23.00 11.32 C 23.46 11.32 23.91 11.18 24.29 10.92 C 24.67 10.67 24.96 10.31 25.14 9.88 C 25.31 9.46 25.35 8.99 25.26 8.55 C 25.18 8.10 24.95 7.68 24.63 7.36 C 24.31 7.04 23.89 6.82 23.45 6.73 C 23.00 6.64 22.53 6.68 22.11 6.85 C 21.68 7.03 21.32 7.32 21.07 7.70 C 20.81 8.08 20.67 8.53 20.67 8.99 C 20.67 9.30 20.72 9.60 20.84 9.89 C 20.95 10.17 21.13 10.43 21.34 10.65 C 21.56 10.86 21.82 11.04 22.10 11.15 C 22.39 11.27 22.69 11.32 23.00 11.32 ZM 9.00 20.62 C 8.40 20.66 7.85 20.92 7.44 21.36 C 7.03 21.79 6.80 22.37 6.80 22.97 C 6.80 23.56 7.03 24.14 7.44 24.57 C 7.85 25.01 8.40 25.27 9.00 25.31 C 9.32 25.33 9.64 25.29 9.95 25.18 C 10.25 25.07 10.53 24.90 10.76 24.68 C 10.99 24.46 11.18 24.19 11.31 23.90 C 11.44 23.60 11.50 23.29 11.50 22.97 C 11.50 22.64 11.44 22.33 11.31 22.03 C 11.18 21.74 10.99 21.47 10.76 21.25 C 10.53 21.03 10.25 20.86 9.95 20.75 C 9.64 20.64 9.32 20.60 9.00 20.62 ZM 9.00 11.32 C 8.54 11.32 8.09 11.46 7.71 11.72 C 7.33 11.98 7.03 12.35 6.86 12.77 C 6.69 13.20 6.65 13.67 6.74 14.12 C 6.83 14.57 7.06 14.98 7.38 15.31 C 7.71 15.63 8.13 15.85 8.58 15.94 C 9.03 16.02 9.50 15.98 9.92 15.80 C 10.35 15.62 10.71 15.32 10.96 14.94 C 11.22 14.55 11.35 14.10 11.35 13.64 C 11.35 13.02 11.11 12.43 10.67 12.00 C 10.24 11.56 9.65 11.32 9.03 11.32 H 9.00 ZM 13.69 15.97 C 13.23 15.96 12.78 16.10 12.39 16.35 C 12.00 16.60 11.70 16.96 11.52 17.38 C 11.34 17.81 11.29 18.28 11.37 18.73 C 11.45 19.18 11.67 19.60 11.99 19.93 C 12.32 20.26 12.73 20.49 13.18 20.58 C 13.63 20.68 14.10 20.63 14.53 20.46 C 14.96 20.29 15.33 19.99 15.59 19.61 C 15.85 19.23 15.99 18.78 15.99 18.32 C 15.99 17.71 15.76 17.12 15.33 16.68 C 14.91 16.24 14.33 15.99 13.72 15.97 H 13.69 Z"></path>
</svg>