<svg width="879" height="324" viewBox="0 0 879 324" fill="none" xmlns="http://www.w3.org/2000/svg">
<path d="M140 74.5C84.7715 74.5 40 119.272 40 174.5C40 229.728 84.7715 274.5 140 274.5V74.5Z" fill="#E0E0E0"/>
<path d="M163 49.5C218.228 49.5 263 94.2715 263 149.5C263 204.728 218.228 249.5 163 249.5V49.5Z" fill="#E0E0E0"/>
<path d="M140 74.5C84.7715 74.5 40 119.272 40 174.5C40 229.728 84.7715 274.5 140 274.5C191.167 274.5 233.359 236.071 239.287 186.5H236.265C230.354 234.41 189.508 271.5 140 271.5C86.4284 271.5 43 228.072 43 174.5C43 120.928 86.4284 77.5 140 77.5V74.5Z" fill="#E0E0E0"/>
<path d="M163 49.5L164.966 51.3816L139.841 76.8689L137.976 75.0013L163 49.5Z" fill="#E0E0E0"/>
<path d="M162.999 247.544L164.966 249.425L140.253 274.5L137.976 273.045L162.999 247.544Z" fill="#E0E0E0"/>
<path d="M342.106 72.3081C358.666 72.3081 370.906 82.2441 370.906 105.284V146.18H363.562V105.572C363.562 88.2921 355.066 79.0761 340.954 79.0761C325.402 79.0761 315.754 91.1721 315.754 110.18V146.18H308.41V73.1721H314.746L315.898 88.7241C320.074 79.2201 328.714 72.3081 342.106 72.3081ZM411.092 147.044C390.355 147.044 376.099 132.068 376.099 109.172C376.099 87.5721 389.779 72.3081 409.796 72.3081C429.38 72.3081 442.772 84.9801 443.492 106.724C443.492 107.588 443.348 108.74 443.348 109.748H383.731V111.044C384.019 128.036 394.243 140.42 410.516 140.42C422.468 140.42 432.116 133.364 434.996 121.988H442.484C439.316 136.676 427.076 147.044 411.092 147.044ZM384.307 103.556H435.572C434.42 87.5721 424.196 78.7881 409.94 78.7881C396.547 78.7881 385.459 88.7241 384.307 103.556ZM479.751 72.3081C498.039 72.3081 508.263 81.6681 508.263 97.7961V146.18H501.927L501.207 131.492C496.887 140.42 488.391 147.044 473.847 147.044C458.007 147.044 447.639 139.124 447.639 126.308C447.639 112.34 457.863 104.42 476.151 104.42H500.919V97.3641C500.919 85.9881 493.143 78.7881 479.463 78.7881C467.511 78.7881 459.591 84.6921 457.719 93.6201H450.375C452.247 80.3721 463.479 72.3081 479.751 72.3081ZM500.919 117.668V110.756H475.431C462.471 110.756 455.127 116.084 455.127 126.02C455.127 134.804 462.471 140.708 474.279 140.708C491.127 140.708 500.487 131.06 500.919 117.668ZM547.244 73.1721H551.132V80.2281H545.804C528.668 80.2281 524.78 94.3401 524.78 109.172V146.18H517.436V73.1721H523.772L524.924 87.7161C527.948 79.6521 533.708 73.1721 547.244 73.1721ZM312.154 233.012V197.3H299.914V180.164H312.154V159.428H332.458V180.164H349.45V197.3H332.458V229.7C332.458 234.884 334.474 237.044 339.802 237.044H349.882V254.18H333.322C319.21 254.18 312.154 247.124 312.154 233.012ZM396.575 180.164H400.032V198.596H391.967C379.871 198.596 375.263 206.66 375.263 217.892V254.18H354.959V180.164H373.391L375.263 191.252C379.295 184.628 385.055 180.164 396.575 180.164ZM438.966 255.044C414.342 255.044 399.51 240.212 399.51 217.316C399.51 194.276 414.63 179.3 437.526 179.3C459.702 179.3 474.678 193.124 474.966 214.868C474.966 217.028 474.822 219.476 474.39 221.78H420.678V222.788C421.11 233.3 427.878 239.636 438.102 239.636C446.31 239.636 452.07 236.036 453.798 229.124H473.814C471.51 243.524 458.694 255.044 438.966 255.044ZM421.11 208.532H454.518C453.078 199.46 446.886 194.42 437.67 194.42C428.886 194.42 422.262 199.748 421.11 208.532ZM514.862 179.3C535.598 179.3 547.55 188.516 547.55 206.228V254.18H529.694L528.11 244.82C522.782 251.156 516.014 255.044 505.646 255.044C489.518 255.044 478.862 247.268 478.862 233.156C478.862 217.46 490.67 208.676 512.99 208.676H527.534V205.076C527.534 198.452 522.782 194.132 514.286 194.132C506.366 194.132 501.038 197.732 500.174 203.204H480.59C482.03 188.804 495.278 179.3 514.862 179.3ZM510.254 240.356C520.91 240.356 527.39 233.732 527.534 223.652V222.212H512.702C504.206 222.212 499.31 225.668 499.31 231.86C499.31 237.044 503.486 240.356 510.254 240.356ZM552.575 229.556H571.871C572.591 236.036 578.207 240.5 588.143 240.5C596.639 240.5 601.823 237.764 601.823 232.58C601.823 226.532 596.783 226.1 584.831 224.516C567.551 222.5 554.159 218.612 554.159 203.348C554.159 188.66 566.975 179.012 585.983 179.156C605.855 179.156 619.535 187.94 620.543 203.06H601.103C600.527 197.156 594.911 193.556 586.703 193.556C578.783 193.556 573.599 196.436 573.599 201.188C573.599 206.804 579.935 207.38 590.591 208.676C607.583 210.404 621.695 214.292 621.695 230.996C621.695 245.684 607.871 255.044 587.999 255.044C567.406 255.044 553.439 245.396 552.575 229.556ZM677.462 217.172V180.164H697.766V254.18H679.766L677.894 245.252C673.142 251.012 666.661 255.044 656.15 255.044C640.885 255.044 626.774 247.412 626.774 221.204V180.164H647.078V218.468C647.078 231.716 651.398 238.196 661.478 238.196C671.557 238.196 677.462 230.852 677.462 217.172ZM749.179 180.164H752.635V198.596H744.571C732.475 198.596 727.867 206.66 727.867 217.892V254.18H707.563V180.164H725.995L727.867 191.252C731.899 184.628 737.659 180.164 749.179 180.164ZM811.095 216.308V180.164H831.399V252.74C831.399 270.164 820.887 283.844 794.247 283.844C774.663 283.844 761.271 275.06 760.407 258.068H780.855C782.583 264.98 787.479 268.436 795.975 268.436C805.623 268.436 811.527 262.964 811.527 252.74V243.524C806.631 249.716 800.583 254.18 789.927 254.18C774.663 254.18 760.551 246.98 760.551 220.196V180.164H780.855V217.748C780.855 230.708 785.319 237.188 795.255 237.188C805.191 237.188 811.095 229.844 811.095 216.308Z" fill="#E0E0E0"/>
</svg>
