<svg xmlns="http://www.w3.org/2000/svg" fill="none" viewBox="0 0 32 32" height="32" width="32" part="svg" draggable="true">

<path part="base-color" fill="currentColor" d="M 28.89 16.54 L 27.46 14.64 L 30.25 12.64 L 31.70 14.55 L 28.89 16.54 ZM 25.95 13.41 L 23.95 12.05 L 26.39 8.58 L 28.39 9.95 L 25.95 13.41 ZM 21.95 10.77 L 19.68 10.08 L 20.91 6.08 L 23.20 6.79 L 21.95 10.77 ZM 17.20 9.42 H 14.81 V 5.25 H 17.18 L 17.20 9.42 ZM 10.05 10.75 L 8.82 6.75 L 11.12 6.04 L 12.36 10.04 L 10.05 10.75 ZM 6.05 13.39 L 3.65 9.93 L 5.66 8.56 L 8.04 12.03 L 6.05 13.39 ZM 3.12 16.52 L 0.30 14.52 L 1.76 12.63 L 4.54 14.63 L 3.12 16.52 ZM 15.98 8.52 C 21.86 8.52 27.23 12.41 29.98 17.61 C 27.23 22.82 21.88 26.75 15.99 26.75 C 10.12 26.75 4.82 22.86 2.00 17.62 C 4.79 12.46 10.19 8.54 15.99 8.54 L 15.98 8.52 ZM 15.98 23.67 C 20.43 23.67 24.34 21.00 26.70 17.61 C 24.39 14.25 20.39 11.57 15.99 11.57 C 11.60 11.57 7.71 14.25 5.39 17.63 C 7.71 21.02 11.61 23.69 15.99 23.69 L 15.98 23.67 ZM 21.70 16.56 C 21.71 17.69 21.38 18.80 20.76 19.74 C 20.13 20.68 19.24 21.42 18.20 21.86 C 17.16 22.29 16.01 22.41 14.90 22.19 C 13.79 21.98 12.77 21.43 11.96 20.63 C 11.16 19.84 10.62 18.82 10.40 17.71 C 10.17 16.60 10.29 15.45 10.72 14.40 C 11.15 13.36 11.89 12.47 12.83 11.84 C 13.77 11.21 14.87 10.88 16.00 10.88 C 16.75 10.88 17.50 11.03 18.19 11.31 C 18.88 11.60 19.51 12.02 20.04 12.55 C 20.57 13.08 20.99 13.70 21.28 14.40 C 21.57 15.09 21.71 15.83 21.71 16.58 L 21.70 16.56 Z"></path>
</svg>